<svg width="388" height="480" viewBox="0 0 388 480" fill="none" xmlns="http://www.w3.org/2000/svg">
<g clip-path="url(#clip0_2_2)">
<rect width="388" height="480" fill="white"/>
<path d="M33.702 478.472C27.7537 476.732 22.719 472.593 20.113 467.299C17.051 461.079 17.6863 452.182 21.6003 446.468C24.0808 442.847 25.8831 441.327 30.2005 439.215C33.8289 437.44 34.1329 437.38 39.4544 437.38C45.5234 437.38 48.4425 438.118 51.9597 440.544C54.8623 442.546 54.7585 443.432 51.2605 446.509C49.6186 447.953 47.9308 449.135 47.5101 449.135C47.0894 449.135 45.4791 448.661 43.9317 448.082C38.2527 445.957 32.4859 448.159 29.9028 453.439C28.7735 455.747 28.6083 456.606 28.8471 458.92C29.467 464.926 34.2079 469.198 40.1369 469.093C45.1694 469.004 45.457 468.803 45.457 465.369V462.39L42.7058 462.245C39.4626 462.074 38.7012 461.344 38.711 458.418C38.7228 453.936 38.3399 454.137 46.9548 454.137C52.9898 454.137 54.7136 454.287 55.1864 454.857C55.8632 455.673 55.7578 476.269 55.073 476.952C53.6241 478.397 37.3933 479.551 33.702 478.472ZM125.241 478.206C121.286 476.93 119.814 476.057 116.906 473.265C107.647 464.372 109.035 447.877 119.641 440.768C123.767 438.002 125.996 437.38 131.77 437.38C136.288 437.38 136.757 437.483 140.366 439.267C144.837 441.477 147.55 444.273 149.802 448.992C151.944 453.48 152.341 459.521 150.823 464.521C147.544 475.314 135.781 481.607 125.241 478.206ZM134.809 467.936C138.307 466.471 140.247 462.993 140.247 458.187C140.247 454.711 139.771 453.24 137.88 450.87C135.4 447.762 131.253 446.857 127.434 448.591C122.358 450.896 120.384 457.992 123.247 463.641C125.446 467.98 130.352 469.803 134.809 467.936ZM298.623 478.591C289.268 476.395 282.687 466.982 283.448 456.887C284.361 444.774 293.347 436.62 305.067 437.269C313.066 437.712 318.669 441.396 322.195 448.53C324.04 452.264 324.075 452.441 324.075 458.113C324.075 463.548 323.983 464.084 322.519 467.142C319.616 473.209 315.4 476.727 309.051 478.381C305.833 479.219 301.657 479.303 298.623 478.591ZM308.337 467.518C311.228 466.06 313.323 462.233 313.316 458.424C313.31 455.387 311.553 451.285 309.6 449.749C305.116 446.222 298.912 447.48 295.961 452.516C294.879 454.362 294.611 455.459 294.59 458.138C294.566 460.989 294.779 461.821 296.069 463.93C297.834 466.815 300.936 468.643 304.066 468.643C305.188 468.643 307.11 468.137 308.337 467.518ZM69.7173 478.332C67.7668 477.553 67.7162 477.028 67.7241 457.668C67.7281 447.335 67.919 438.585 68.1483 438.224C68.472 437.714 70.9951 437.575 79.5204 437.602L90.4764 437.637L93.5848 439.158C98.6134 441.617 101.351 446.039 101.308 451.631C101.272 456.348 99.0588 460.468 95.5106 462.426C94.5415 462.961 95.3759 464.772 102.583 477.774C102.697 477.98 100.339 478.149 97.3432 478.149H91.8959L90.1857 475.166C89.2451 473.525 87.5697 470.655 86.4626 468.788L84.4497 465.393L81.2753 465.417L78.1009 465.441L78.1677 471.168C78.2032 474.318 78.0531 477.17 77.8316 477.507C77.3961 478.169 70.9504 478.824 69.7173 478.332ZM89.4664 454.939C91.0162 453.924 91.5211 452.054 90.749 450.19C89.9058 448.155 88.3172 447.634 82.9493 447.634H78.2208V451.552C78.2208 453.708 78.3479 455.598 78.5033 455.753C78.6586 455.908 80.9088 455.972 83.5041 455.895C86.8305 455.795 88.5895 455.514 89.4664 454.939ZM174.465 478.16C173.889 477.928 173.064 476.985 172.632 476.066C170.874 472.33 158.755 440.065 158.755 439.122C158.755 437.783 160.558 437.13 164.249 437.13C168.041 437.13 168.619 437.388 169.708 439.567C170.404 440.961 177.048 459.643 178.047 463.016C178.615 464.935 179.066 463.761 184.518 446.156C185.75 442.18 187.074 438.609 187.461 438.222C187.848 437.835 189.144 437.409 190.342 437.275C194.476 436.813 194.853 437.441 200.75 454.633C203.388 462.323 204.774 465.226 204.774 463.059C204.774 462.006 212.395 439.331 213.05 438.435C213.422 437.926 214.751 437.513 216.657 437.314C220.584 436.903 223.138 437.388 223.529 438.619C223.868 439.687 210.645 475.58 209.302 477.24C208.612 478.092 207.833 478.253 204.091 478.319C200.157 478.389 199.601 478.284 198.826 477.333C198.35 476.748 196.529 472.471 194.78 467.829C193.031 463.187 191.443 459.206 191.253 458.982C191.062 458.759 189.617 462.277 188.042 466.801C184.496 476.985 183.971 477.9 181.442 478.318C178.845 478.747 175.742 478.677 174.465 478.16ZM241.54 478.235L240.039 477.888L239.908 458.165C239.836 447.317 239.955 438.265 240.171 438.048C240.388 437.831 245.624 437.613 251.807 437.562C262.442 437.473 263.187 437.526 265.609 438.583C273.184 441.88 275.202 450.946 269.471 455.932L267.695 457.477L269.469 458.524C272.258 460.169 273.981 463.196 274.193 466.826C274.354 469.582 274.205 470.172 272.713 472.63C271.376 474.833 270.473 475.663 268.086 476.882L265.121 478.397L254.081 478.489C248.008 478.542 242.365 478.426 241.54 478.235ZM262.826 467.868C263.563 467.201 263.806 466.452 263.699 465.179C263.484 462.635 262.176 462.157 255.421 462.148L249.794 462.142V465.366V468.59L252.17 468.806C257.097 469.254 261.748 468.846 262.826 467.868ZM260.981 452.6C262.528 451.383 262.687 449.641 261.359 448.44C260.302 447.483 259.728 447.414 253.92 447.543L249.793 447.634V450.302C249.793 451.769 249.943 453.12 250.127 453.303C250.31 453.486 252.531 453.637 255.061 453.637C258.959 453.637 259.864 453.479 260.981 452.6ZM331.447 478.223L330.316 477.897L331.38 475.896C331.965 474.796 334.739 470.631 337.545 466.642C340.351 462.653 342.813 459.109 343.017 458.767C343.246 458.384 340.981 454.655 337.108 449.036C333.538 443.858 330.828 439.431 330.828 438.778C330.828 437.655 330.94 437.63 336.008 437.63H341.187L343.381 440.756C344.588 442.476 346.44 445.177 347.497 446.759C348.554 448.341 349.58 449.635 349.778 449.635C349.976 449.635 351.458 447.582 353.071 445.073C358.093 437.262 357.574 437.63 363.583 437.63C367.5 437.63 368.8 437.795 369.001 438.319C369.248 438.961 364.824 445.574 358.528 453.975C357.049 455.949 355.838 457.821 355.838 458.134C355.838 458.448 357.37 460.772 359.242 463.299C364.376 470.229 368.844 476.865 368.844 477.56C368.844 478.024 367.435 478.144 363.218 478.039L357.591 477.897L353.757 472.41C351.648 469.391 349.734 466.863 349.504 466.792C349.274 466.721 347.399 469.226 345.338 472.359C341.954 477.505 341.421 478.084 339.836 478.346C337.605 478.716 332.921 478.646 331.447 478.223ZM111.05 413.495C110.884 412.876 110.745 408.704 110.741 404.225C110.736 398.15 110.576 396.032 110.109 395.89C96.7771 391.817 89.8592 388.077 80.5051 379.885C71.2838 371.809 60.0986 361.379 56.2602 357.276C51.4198 352.103 49.2432 347.909 47.4685 340.339C46.7591 337.312 42.221 323.019 37.3838 308.575C30.3751 287.648 28.5838 281.755 28.5632 279.563C28.516 274.417 31.773 269.399 36.9534 266.639C39.2449 265.419 39.9366 265.307 45.2069 265.307C50.4095 265.307 51.2344 265.436 53.8369 266.655C59.7159 269.41 64.0817 275.013 65.9915 282.253C66.804 285.333 67.0739 285.766 68.5695 286.391C71.1512 287.47 74.0727 290.4 75.0083 292.85C75.4745 294.071 76.0503 295.07 76.288 295.07C76.5273 295.07 76.7217 278.132 76.7234 257.178L76.7265 219.287L78.0988 218.48C95.4262 208.289 116.563 196.343 128.242 190.14C130.581 188.898 134.407 186.82 136.746 185.521C140.788 183.277 156.879 174.67 159.949 173.11L161.394 172.376L160.199 171.454C158.161 169.882 157.446 169.908 154.67 171.65C145.371 177.486 136.926 178.359 126.266 174.586C122.272 173.173 113.181 168.281 110.896 166.316L109.586 165.189L113.287 161.435C115.322 159.37 118.2 156.667 119.681 155.428L122.376 153.175L119.893 149.465C115.171 142.408 113.649 137.845 111.465 124.192L111.216 122.637L114.352 122.329C116.077 122.161 119.525 122.22 122.015 122.461C132.421 123.47 139.704 126.5 145.457 132.215C150.818 137.54 153.215 143.035 153.241 150.062L153.252 153.367L159.38 156.526C162.75 158.264 167.731 160.896 170.449 162.375C174.378 164.514 175.685 165.001 176.827 164.75L178.263 164.435V150.499V136.564L175.887 136.235C164.273 134.63 156.057 127.883 151.208 115.969C149.566 111.935 147.487 102.549 148.1 101.942C148.32 101.724 151.314 101.393 154.753 101.207C161.886 100.821 168.625 101.479 173.018 102.991C174.617 103.541 176.036 103.881 176.171 103.746C176.306 103.611 176.368 101.859 176.309 99.8524C176.035 90.4345 180.234 80.6703 188.867 70.655C190.6 68.6445 192.39 66.9935 192.844 66.9862C193.299 66.9791 194.784 68.2672 196.145 69.8491C205.376 80.5779 209.581 90.2888 209.19 99.9747C209.034 103.853 209.076 104.046 210.026 103.793C210.576 103.647 212.715 103.04 214.778 102.446C217.818 101.57 219.954 101.354 226.033 101.309C230.16 101.278 234.41 101.434 235.477 101.655L237.419 102.058L237.086 105.301C236.668 109.386 234.69 115.704 232.409 120.245C228.742 127.545 220.097 134.2 212.527 135.55C210.876 135.845 208.963 136.241 208.275 136.431L207.025 136.776V150.501V164.226L208.556 164.665C209.912 165.055 210.994 164.633 218.06 160.959C222.445 158.678 227.383 156.084 229.034 155.194L232.035 153.576L232.329 149.166C232.721 143.301 233.793 139.89 236.445 136.08C242.427 127.483 253.713 122.507 267.65 122.321C270.829 122.279 273.466 122.463 273.746 122.746C274.329 123.338 273.302 129.834 271.729 135.502C270.09 141.411 266.544 148.589 263.655 151.85C262.687 152.942 262.687 152.942 264.619 154.576C267.887 157.342 275.304 164.797 275.304 165.317C275.304 166.022 268.74 170.27 264.583 172.256C251.599 178.458 241.189 178.37 230.577 171.97L227.19 169.927L224.985 171.097C223.773 171.74 222.853 172.491 222.941 172.767C223.113 173.308 226.675 175.297 238.788 181.616C262.999 194.248 282.174 204.626 298.063 213.695C301.915 215.894 305.913 218.164 306.948 218.74L308.831 219.788L308.734 257.422C308.681 278.12 308.793 295.209 308.978 295.396C309.165 295.583 309.318 295.287 309.318 294.738C309.318 292.265 313.799 287.473 317.359 286.139C318.457 285.728 318.815 285.018 319.793 281.318C321.325 275.518 323.988 271.538 328.244 268.685C332.572 265.784 335.793 264.921 341.496 265.135C345.387 265.281 346.528 265.532 349.013 266.791C353.428 269.028 356.337 273.126 357.094 278.176C357.398 280.203 357.064 281.627 354.445 289.409C346.255 313.757 341.04 330.137 339.03 337.828C336.61 347.088 334.483 351.621 330.622 355.752C328.858 357.638 317.338 368.531 310.319 374.949C305.31 379.529 298.924 384.785 296.078 386.671C291.534 389.68 282.475 393.929 278.278 395.019L274.553 395.986L274.418 405.303L274.282 414.62H266.746H259.21L259.391 404.241C259.56 394.571 259.653 393.698 260.743 391.48C262.896 387.1 267.045 384.159 276.176 380.542C281.765 378.328 288.387 374.76 291.162 372.469C295.35 369.011 316.092 349.723 318.993 346.59C321.934 343.414 322.699 341.436 322.08 338.615C321.585 336.363 319.618 334.282 317.062 333.305C312.428 331.536 309.327 333.555 299.264 344.897C296.466 348.05 293.725 350.872 293.171 351.168C292.617 351.465 288.869 351.902 284.84 352.14C276.56 352.629 270.086 354.047 264.576 356.578C253.649 361.598 245.841 369.749 242.5 379.625C240.808 384.625 240.298 390.086 240.293 403.24L240.289 414.62H233.262H226.234L226.384 397.362C226.466 387.871 226.505 380.105 226.472 380.105C226.41 380.105 211.946 387.998 200.022 394.538C196.445 396.5 193.212 398.106 192.837 398.109C192.17 398.113 187.937 395.887 169.259 385.71C164.169 382.937 159.667 380.539 159.254 380.381C158.595 380.129 158.521 382.179 158.648 397.357L158.791 414.62H151.819H144.846L144.631 399.489C144.432 385.458 144.334 384.103 143.283 380.856C140.129 371.118 133.814 363.689 124.205 358.41C116.927 354.412 110.534 352.726 100.365 352.123C92.0419 351.629 93.2729 352.323 84.7937 343.34C77.4137 335.522 76.0144 334.281 73.4793 333.313C70.6476 332.232 67.6269 333.01 65.3719 335.401C63.3138 337.583 62.8371 339.962 63.9018 342.736C64.9085 345.36 65.7965 346.34 74.4685 354.394C96.0467 374.436 97.3986 375.418 111.646 381.406C117.55 383.887 120.98 386.209 122.961 389.068C125.44 392.646 125.695 394.094 125.718 404.741L125.742 414.62H118.547C111.509 414.62 111.345 414.597 111.05 413.495ZM201.548 376.139C202.022 375.676 203.708 374.763 226.784 362.478C233.524 358.889 242.528 354.039 246.792 351.7C261.413 343.678 269.384 339.457 289.56 329.054L293.062 327.248L293.312 318.787C293.449 314.133 293.503 292.148 293.431 269.93L293.3 229.535L289.725 231.335C287.76 232.325 280.84 236.008 274.35 239.519C267.859 243.03 259.622 247.431 256.046 249.298C252.469 251.165 247.855 253.591 245.792 254.69C243.728 255.788 236.546 259.592 229.831 263.143C223.116 266.693 213.722 271.672 208.956 274.206L200.289 278.813L200.283 306.699C200.279 322.037 200.464 334.586 200.693 334.586C201.215 334.586 219.978 324.863 234.289 317.176C246.624 310.551 247.889 310.22 250.347 312.971C252.075 314.906 252.277 317.538 250.873 319.83C249.976 321.295 243.962 324.65 208.158 343.661L200.285 347.842L200.28 362.223C200.277 370.133 200.455 376.604 200.675 376.604C200.896 376.604 201.287 376.395 201.548 376.139ZM209.004 312.85C207.782 311.628 207.377 309.196 208.086 307.347C208.492 306.291 210.877 305.074 212.541 305.074C214.485 305.074 216.78 307.575 216.78 309.694C216.78 313.503 211.713 315.559 209.004 312.85ZM224.103 307.001C223.296 306.3 222.634 305.105 222.465 304.046C221.813 299.941 227.094 297.335 230.058 300.299C233.846 304.087 228.141 310.508 224.103 307.001ZM238.328 282.493C234.268 278.711 235.242 272.647 240.407 269.552C245.158 266.705 260.005 258.891 261.98 258.198C263.742 257.579 264.112 257.616 266.163 258.608C269.866 260.401 270.857 264.419 268.562 268.336C267.147 270.75 266.826 270.954 252.965 278.254C242.108 283.971 240.434 284.456 238.328 282.493ZM185.266 327.681V279.259L179.389 276.163C176.156 274.46 170.698 271.585 167.259 269.774C163.82 267.962 157.517 264.614 153.253 262.334C148.988 260.054 142.798 256.773 139.497 255.042C136.195 253.312 132.369 251.285 130.993 250.539C129.618 249.792 121.739 245.634 113.486 241.299C105.232 236.964 97.0519 232.657 95.3071 231.729C93.5623 230.801 91.9681 230.042 91.7644 230.042C91.3077 230.042 91.6887 326.71 92.1471 327.148C92.3285 327.321 99.68 331.228 108.484 335.831C117.287 340.434 125.166 344.6 125.991 345.089C126.817 345.578 135.032 349.971 144.249 354.85C153.465 359.73 162.469 364.511 164.257 365.476C166.046 366.441 170.226 368.655 173.548 370.395C176.869 372.136 180.583 374.13 181.801 374.826C183.019 375.522 184.297 376.094 184.641 376.098C185.137 376.103 185.266 366.089 185.266 327.681ZM101.858 318.87L97.2338 316.328L97.2313 301.174L97.2288 286.02L98.4362 284.813C100.018 283.231 101.888 282.801 103.78 283.585C106.952 284.899 106.965 284.982 107.061 303.917C107.108 313.353 106.998 321.15 106.815 321.243C106.632 321.335 104.402 320.268 101.858 318.87ZM117.631 282.115C116.196 280.832 116.065 280.506 116.498 279.289C116.767 278.533 117.593 277.463 118.334 276.912C119.608 275.963 119.75 275.954 120.953 276.742C121.653 277.201 122.6 278.147 123.057 278.845C123.866 280.08 123.844 280.159 122.215 281.839C121.295 282.788 120.253 283.565 119.898 283.565C119.544 283.565 118.524 282.912 117.631 282.115ZM99.1913 273.599C97.4002 271.808 97.2233 269.173 98.7506 267.029C100.82 264.122 105.422 264.822 107.078 268.295C107.762 269.73 107.787 270.223 107.241 271.541C105.73 275.19 101.79 276.197 99.1913 273.599ZM119.902 268.704C119.304 268.591 118.235 267.919 117.526 267.21C115.808 265.492 115.811 263.139 117.532 261.093C118.61 259.812 119.189 259.554 120.989 259.554C122.789 259.554 123.368 259.812 124.446 261.093C126.15 263.118 126.122 265.134 124.366 267.011C122.905 268.57 121.671 269.039 119.902 268.704ZM100.409 257.058C97.4444 255.861 96.7737 251.429 99.1913 249.012C102.379 245.824 107.471 248.05 107.342 252.575C107.238 256.226 103.822 258.435 100.409 257.058ZM335.521 301.759C339.818 288.793 343.333 277.848 343.333 277.436C343.333 276.639 341.34 276.061 338.586 276.061C336.727 276.061 334.636 277.519 333.589 279.545C332.522 281.607 318.322 320.669 318.322 321.54C318.322 321.734 319.392 322.171 320.699 322.512C322.005 322.853 323.975 323.765 325.075 324.539C326.176 325.312 327.219 325.807 327.392 325.639C327.566 325.47 331.224 314.724 335.521 301.759ZM61.6094 324.111C63.18 323.301 65.0841 322.489 65.8406 322.306C66.5972 322.122 67.2162 321.79 67.2162 321.568C67.2162 321.346 66.296 318.613 65.1714 315.495C64.0468 312.377 61.7003 305.774 59.957 300.822C51.5096 276.826 51.0763 276.052 46.0662 275.992C42.9171 275.954 42.2056 276.234 42.2056 277.51C42.2056 278.161 56.192 320.325 57.9445 324.957C58.2665 325.808 58.3574 325.787 61.6094 324.111ZM200.273 261.407C203.987 259.404 211.865 255.153 217.78 251.962C223.695 248.771 239.072 240.495 251.95 233.573C277.916 219.615 278.564 219.25 277.972 218.905C277.743 218.771 274.404 217.031 270.552 215.037C266.701 213.042 260.398 209.779 256.546 207.785C228.671 193.35 208.306 183.022 207.719 183.022C207.436 183.022 207.298 184.992 207.382 187.811L207.525 192.6L211.527 194.728C213.728 195.899 220.481 199.399 226.533 202.506C232.586 205.613 241.702 210.296 246.792 212.911C251.882 215.526 256.342 217.941 256.704 218.277C257.232 218.768 256.053 219.553 250.701 222.275C247.038 224.139 243.366 226.059 242.54 226.543C240.435 227.777 223.844 236.482 212.528 242.289C207.3 244.971 200.773 248.357 198.021 249.813L193.019 252.459L177.263 244.618C150.778 231.439 126.713 218.871 126.895 218.315C126.989 218.024 138.53 211.782 152.54 204.443L178.013 191.099L178.158 186.802C178.34 181.375 178.014 181.187 172.822 183.741C169.039 185.601 149.362 195.877 129.242 206.5C126.079 208.17 119.496 211.618 114.614 214.162C109.732 216.706 105.741 218.9 105.744 219.037C105.75 219.411 111.148 222.475 118.738 226.417C124.92 229.628 142.806 239.063 155.754 245.945C177.082 257.282 192.134 265.051 192.769 265.05C193.182 265.05 196.558 263.41 200.273 261.407ZM193.329 231.394C195.49 230.313 197.082 229.936 200.313 229.736C202.615 229.594 204.786 229.24 205.137 228.948C206.251 228.024 205.85 226.192 204.236 224.834C202.387 223.279 200.888 223.205 198.272 224.54C197.193 225.09 196.189 225.54 196.041 225.54C195.892 225.54 195.771 198.556 195.771 165.576C195.771 110.056 195.835 105.468 196.627 103.675C197.262 102.239 197.488 100.313 197.501 96.2353C197.518 91.2006 197.4 90.4991 196.132 87.9818C195.37 86.4687 194.301 84.6679 193.758 83.9801L192.769 82.7296L191.733 83.9801C187.651 88.9082 186.52 97.1406 188.989 103.963C189.711 105.958 189.792 111.861 189.775 161.202C189.763 191.459 189.658 216.313 189.538 216.433C189.418 216.553 188.551 216.174 187.61 215.593C185.142 214.067 182.722 214.208 180.818 215.987C179.963 216.785 179.267 217.854 179.272 218.363C179.289 220.341 180.083 220.761 184.116 220.922C190.637 221.184 190.119 220.605 189.861 227.341C189.734 230.664 189.831 233.089 190.084 232.982C190.33 232.878 191.79 232.163 193.329 231.394ZM165.231 219.626C164.851 216.406 164.342 215.213 162.796 213.916C161.443 212.782 158.366 212.316 156.629 212.983C155.454 213.433 155.254 213.794 155.254 215.462C155.254 217.749 155.596 218.068 159.255 219.186C160.768 219.648 162.682 220.584 163.507 221.265C164.332 221.946 165.135 222.511 165.291 222.521C165.447 222.531 165.42 221.228 165.231 219.626ZM225.781 220.913C225.775 216.276 222.905 212.535 219.359 212.535C216.477 212.535 215.662 213.374 216.069 215.921C216.381 217.873 216.565 218.081 218.469 218.634C220.63 219.261 223.971 221.129 224.52 222.018C225.159 223.052 225.783 222.505 225.781 220.913ZM140.848 164.976C142.306 164.68 145.054 163.842 146.956 163.115L150.414 161.791L147.297 160.341C143.285 158.475 139.113 158.104 134.737 159.224C131.015 160.177 126.241 162.246 126.241 162.906C126.241 163.696 132.816 165.359 136.346 165.461C137.364 165.491 139.39 165.272 140.848 164.976ZM256.671 164.209C257.841 163.781 258.797 163.227 258.797 162.978C258.797 162.73 257.165 161.687 255.171 160.661C251.698 158.875 251.332 158.796 246.542 158.793C241.405 158.789 237.448 159.821 235.007 161.801C234.473 162.233 234.306 162.453 234.635 162.288C234.964 162.123 236.877 162.575 238.887 163.294C240.896 164.012 243.666 164.757 245.042 164.949C248.685 165.456 254.226 165.104 256.671 164.209ZM244.338 147.558C252.21 144.796 256.178 141.807 259.263 136.314L260.281 134.502H258.486C253.526 134.502 246.835 137.635 244.078 141.25C242.824 142.895 240.79 147.1 240.79 148.049C240.79 148.699 241.281 148.631 244.338 147.558ZM141.372 147.216C141.674 146.913 140.971 144.946 139.096 140.854C137.635 137.663 134.776 135.857 129.369 134.708C127.1 134.226 125.128 133.948 124.986 134.09C124.335 134.74 126.542 138.299 129.376 141.17C133.469 145.317 139.986 148.602 141.372 147.216ZM202.875 127.531C203.507 127.273 205.919 126.355 208.236 125.491C214.864 123.017 219.056 119.961 221.84 115.572C224.138 111.947 224.003 111.797 218.719 112.14C209.968 112.706 204.591 116.99 202.105 125.373C201.677 126.817 201.417 127.999 201.526 127.999C201.636 127.999 202.243 127.788 202.875 127.531ZM177.548 124.609C177.393 124.12 176.932 122.437 176.523 120.869C174.745 114.039 173.251 112.761 166.383 112.191C161.698 111.802 161.49 112 163.385 115.052C165.972 119.22 170.221 122.796 174.641 124.524C177.63 125.692 177.895 125.7 177.548 124.609ZM317.64 406.58C316.576 405.744 316.322 405.123 316.322 403.365C316.322 401.608 316.576 400.987 317.64 400.15C319.907 398.367 322.893 398.829 324.093 401.15C325.179 403.249 324.993 404.526 323.363 406.155C321.605 407.914 319.531 408.068 317.64 406.58ZM44.0345 401.548C42.7751 400.816 41.7397 398.159 42.0604 396.482C42.2057 395.722 43.0168 394.518 43.863 393.806C48.3849 390.001 54.159 396.784 49.7509 400.722C48.096 402.201 45.7424 402.541 44.0345 401.548ZM353.665 396.698C351.947 394.8 353.306 391.61 355.831 391.61C357.647 391.61 358.84 392.783 358.84 394.57C358.84 397.246 355.43 398.649 353.665 396.698ZM33.023 369.587C30.0419 368.694 28.1997 365.945 28.1997 362.39C28.1997 358.27 32.534 354.983 36.8904 355.8C40.579 356.492 43.1663 360.237 42.4806 363.892C42.0446 366.217 39.5428 368.96 37.2874 369.586C35.1869 370.169 34.9672 370.169 33.023 369.587ZM350.086 364.021C348.467 363.136 347.835 362.026 347.835 360.069C347.835 355.757 352.295 353.976 355.377 357.057C357.041 358.722 357.157 359.525 356.064 361.828C354.911 364.258 352.283 365.223 350.086 364.021ZM357.301 335.625C354.187 332.512 356.278 327.083 360.59 327.083C363.138 327.083 365.342 329.293 365.342 331.847C365.342 333.271 364.959 334.069 363.642 335.387C361.426 337.602 359.356 337.68 357.301 335.625ZM12.6931 331.721C10.8046 331.002 10.6088 327.989 12.3753 326.831C14.6263 325.356 17.9085 327.816 16.7008 330.073C15.8363 331.688 14.2844 332.326 12.6931 331.721ZM9.31983 298.275C4.6512 295.897 4.54591 288.718 9.14494 286.34C15.0697 283.276 21.6229 289.833 18.2177 295.417C16.2871 298.584 12.385 299.837 9.31983 298.275ZM372.48 278.821C369.213 277.401 367.784 272.427 369.776 269.406C371.851 266.259 375.075 265.388 378.391 267.079C381.996 268.919 383.029 273.583 380.497 276.591C379.121 278.227 376.598 279.579 374.988 279.543C374.497 279.533 373.369 279.208 372.48 278.821ZM14.5113 256.017C13.4826 255.207 13.1934 254.544 13.1934 252.993C13.1934 248.019 19.2572 246.869 21.1672 251.48C21.6706 252.695 21.6387 253.215 20.9812 254.486C19.5768 257.202 16.8408 257.849 14.5113 256.017ZM369.158 243.393C367.283 241.893 367.037 238.629 368.676 236.991C370.162 235.505 373.737 235.551 374.968 237.071C376.352 238.78 376.101 241.369 374.385 243.086C372.626 244.845 371.085 244.935 369.158 243.393ZM347.455 234.854C345.182 233.412 343.096 232.006 342.819 231.729C342.48 231.39 342.814 229.601 343.838 226.276C346.353 218.105 348.831 205.799 348.834 201.46C348.836 199.798 348.693 199.614 347.189 199.332C340.688 198.112 332.443 191.332 329.18 184.523C326.867 179.696 326.353 177.343 326.338 171.516C326.315 162.896 329.065 156.287 335.029 150.621C337.017 148.733 340.072 146.475 341.958 145.5C343.813 144.54 345.331 143.493 345.332 143.172C345.335 142.373 341.772 132.56 339.883 128.165C336.911 121.248 330.651 110.222 329.918 110.612C329.731 110.712 328.101 111.496 326.297 112.355C314.125 118.147 301.942 116.217 292.756 107.041C290.611 104.899 288.357 102.07 287.596 100.564C285.737 96.889 284.308 90.9844 284.308 86.9814C284.308 82.9065 285.816 76.7681 287.64 73.4169L288.992 70.9316L285.275 67.1635C273.193 54.9176 256.473 44.7314 237.87 38.283C232.39 36.3833 221.517 33.7546 220.848 34.1677C220.63 34.3029 220.18 35.6234 219.849 37.1022C218.558 42.8697 212.559 50.3443 206.724 53.454C190.816 61.9329 171.834 54.0961 166.469 36.8351C165.635 34.1528 165.472 33.959 164.041 33.9596C161.726 33.9606 153.242 36.1423 146.5 38.4705C128.36 44.7347 109.099 56.47 97.7553 68.1692L95.5305 70.4637L97.12 73.6574C97.9942 75.414 99.0516 78.1648 99.4699 79.7704C100.439 83.4906 100.446 90.4433 99.4875 94.1328C96.3121 106.324 84.9942 115.377 72.6672 115.586C67.7202 115.669 63.8765 114.721 58.7651 112.156C56.4275 110.983 54.4736 110.072 54.4231 110.132C54.0804 110.54 50.1164 117.241 48.882 119.5C45.7982 125.142 39.2066 141.294 39.2066 143.208C39.2066 143.635 40.6133 144.626 42.4938 145.523C46.4941 147.432 52.0425 152.518 54.4122 156.448C61.1513 167.623 59.4584 182.084 50.3197 191.409C46.6239 195.18 43.52 197.195 38.9564 198.784L35.9552 199.829L36.1053 202.305C36.409 207.322 38.3516 217.447 40.0836 223.039C42.9226 232.205 43.0651 231.466 37.8781 234.477C35.445 235.889 33.209 237.044 32.9093 237.045C32.2362 237.045 31.5089 235.506 29.5992 230.042C26.8395 222.145 24.7463 212.597 23.431 201.905C23.2076 200.092 22.9324 199.529 22.2675 199.529C20.7356 199.529 13.5373 195.732 10.7732 193.466C7.28116 190.604 3.49008 184.887 2.08031 180.359C-0.258315 172.846 0.847595 163.565 4.90658 156.639C8.97306 149.701 17.5309 144.027 25.6067 142.914C26.6259 142.774 27.086 141.787 29.488 134.588C32.9128 124.323 36.6157 116.297 42.0354 107.391C44.9758 102.56 46.1284 100.239 45.7918 99.8288C45.5248 99.5031 44.7791 97.5484 44.1347 95.485C42.4175 89.9863 42.5147 82.71 44.3769 77.3134C46.8839 70.0496 51.3122 64.8823 58.0765 61.3278C65.9666 57.1816 75.498 56.9297 83.2953 60.6614L85.9161 61.9156L87.947 60.1381C89.064 59.1604 90.316 57.9911 90.729 57.5395C93.6516 54.3445 103.455 46.7958 110.835 42.0584C116.342 38.5231 129.786 31.7896 136.498 29.2049C144.322 26.192 158.458 22.4789 164.477 21.8557C165.555 21.7441 166.032 21.3722 166.277 20.4532C166.987 17.7869 169.343 13.5673 171.769 10.6196C180.325 0.222324 196.908 -2.26376 208.442 5.12177C213.202 8.16982 217.496 13.6541 219.512 19.2598L220.396 21.7187L227.218 23.0678C252.387 28.0456 275.568 40.2162 295.064 58.6879L298.565 62.0049L302.157 60.4972C318.231 53.75 335.866 61.7376 341.128 78.1489C343.338 85.043 342.701 93.4197 339.492 99.6572C338.859 100.888 338.856 101.19 339.474 101.908C340.578 103.194 345.452 111.723 348.083 116.974C350.876 122.548 354.365 131.317 356.306 137.643L357.691 142.156L361.393 143.094C367.234 144.574 371.741 147.029 375.48 150.768C382.438 157.726 385.494 167.484 383.622 176.769C382.436 182.658 379.846 187.615 375.892 191.565C372.1 195.354 368.946 197.339 364.345 198.836L361.094 199.893L360.756 204.27C360.398 208.905 358.936 216.814 357.287 223.039C355.854 228.447 352.675 237.197 352.09 237.347C351.814 237.418 349.727 236.296 347.455 234.854ZM358.357 190.028C360.363 189.471 363.521 186.468 364.312 184.365C364.604 183.591 364.837 182.127 364.832 181.114C364.82 179.195 363.352 175.393 362.394 174.801C362.028 174.575 361.841 171.759 361.841 166.469C361.841 157.411 361.401 155.642 358.745 154.023C356.635 152.736 354.042 152.736 351.932 154.023C349.276 155.642 348.836 157.411 348.836 166.469C348.836 171.759 348.649 174.575 348.283 174.801C347.315 175.399 345.857 179.204 345.845 181.162C345.833 183.699 346.854 185.93 348.948 187.921C351.504 190.354 354.65 191.058 358.357 190.028ZM353.087 186.842C348.781 184.885 347.762 179.643 351.081 176.525C352.328 175.352 352.337 175.286 352.337 166.678C352.337 158.678 352.414 157.934 353.337 157.011C353.887 156.461 354.788 156.011 355.338 156.011C355.888 156.011 356.789 156.461 357.339 157.011C358.262 157.934 358.34 158.678 358.34 166.678C358.34 175.286 358.345 175.352 359.596 176.525C360.287 177.174 361.087 178.577 361.374 179.642C362.616 184.255 357.389 188.796 353.087 186.842ZM358.64 184.475C360.728 182.514 360.428 178.848 358.052 177.291C356.89 176.53 356.839 176.265 356.839 171.005V165.515H355.338H353.838V171.005C353.838 176.265 353.784 176.53 352.625 177.291C350.713 178.543 350.149 180.811 351.209 182.974C352.745 186.107 356.167 186.799 358.64 184.475ZM33.3192 188.242C34.5822 187.812 36.4249 186.674 37.4142 185.713C40.4611 182.754 42.5721 177.362 40.3298 178.266C36.4829 179.817 32.1949 178.216 30.2934 174.518C28.6953 171.411 29.0775 168.878 31.7349 164.965C32.8618 163.305 33.6583 161.62 33.5048 161.22C33.3512 160.82 32.2971 159.125 31.1622 157.454L29.099 154.416L23.4112 162.939C19.8058 168.341 17.5116 172.304 17.1443 173.763C14.7655 183.21 23.9524 191.434 33.3192 188.242ZM40.2486 175.879C44.0472 173.319 44.0197 170.5 40.1387 164.61C38.6619 162.369 37.3411 160.535 37.2035 160.535C36.4765 160.535 31.5554 168.915 31.3659 170.476C31.0888 172.759 32.617 175.313 34.8374 176.278C37.1234 177.272 38.312 177.184 40.2486 175.879ZM80.7599 102.698L81.9725 101.407V86.7313V72.0556L80.7599 70.7648C79.5564 69.4838 79.4875 69.474 71.7182 69.474C63.9488 69.474 63.8799 69.484 62.6765 70.7648L61.4638 72.0556V86.7313V101.407L62.6765 102.698C63.8799 103.979 63.9488 103.989 71.7182 103.989C79.4875 103.989 79.5564 103.979 80.7599 102.698ZM69.3785 100.187C69.0087 99.2228 70.0103 98.5016 71.7182 98.5016C73.4261 98.5016 74.4275 99.2228 74.0576 100.187C73.8455 100.739 73.1201 100.987 71.7182 100.987C70.3162 100.987 69.5905 100.739 69.3785 100.187ZM69.7697 74.5189C68.4272 73.6688 69.5652 72.4752 71.7184 72.4752C73.1203 72.4752 73.8459 72.7236 74.0579 73.276C74.4277 74.2397 73.4262 74.961 71.7184 74.961C71.0305 74.961 70.1537 74.7621 69.7697 74.5189ZM301.204 92.9582L306.993 87.4301L310.544 90.9573C312.497 92.8973 314.503 94.4846 315.003 94.4846C315.503 94.4846 318.667 91.7834 322.034 88.482C325.401 85.1806 328.296 82.4795 328.468 82.4795C328.639 82.4795 328.846 83.8863 328.929 85.6058C329.07 88.5674 329.144 88.7321 330.328 88.7321H331.579V82.7296V76.727L325.775 76.5867C321.053 76.4726 319.853 76.5892 319.336 77.212C318.188 78.595 319.572 79.4782 322.886 79.4782C324.503 79.4782 325.826 79.6782 325.826 79.9226C325.826 80.1671 323.337 82.6806 320.294 85.5082L314.762 90.6492L311.154 87.0646C309.169 85.093 307.232 83.4799 306.849 83.4799C305.862 83.4799 293.312 96.0161 293.312 97.0026C293.312 98.0094 293.757 98.4862 294.697 98.4862C295.092 98.4862 298.02 95.9986 301.204 92.9582ZM55.569 94.427C55.9791 94.0168 55.9395 93.3385 55.419 91.8631C54.5075 89.2795 54.5117 84.1709 55.4249 81.5751C56.0357 79.844 56.0389 79.4594 55.4485 78.9681C54.3923 78.0914 53.8013 78.7592 52.905 81.8422C51.9449 85.1451 52.1533 90.2395 53.3659 93.109C54.1984 95.0786 54.6486 95.3474 55.569 94.427ZM90.3294 92.2006C91.4006 89.103 91.4533 84.925 90.4635 81.5913C89.6164 78.7388 89.0222 78.1093 87.9874 78.9681C87.3953 79.4594 87.3983 79.844 88.011 81.5751C88.9269 84.1709 88.9312 89.2795 88.017 91.8631C87.4917 93.3518 87.4545 94.0147 87.8734 94.4333C88.8058 95.3657 89.4314 94.7974 90.3294 92.2006ZM59.2953 90.9675C59.2031 90.2883 59.1275 88.382 59.1275 86.7313C59.1275 85.0806 59.2031 83.1743 59.2953 82.4951C59.5605 80.5435 57.9916 80.5979 57.1753 82.5686C55.7673 85.9679 56.7931 92.7456 58.6581 92.3662C59.1963 92.2566 59.4076 91.7935 59.2953 90.9675ZM86.271 90.8708C87.6707 87.4918 86.6368 80.7184 84.7787 81.0964C83.9473 81.2655 83.9299 81.5502 84.5064 85.5465C84.7055 86.926 84.6003 88.5914 84.2464 89.6635C83.2499 92.6827 85.0708 93.7685 86.271 90.8708ZM194.738 46.7532C195.068 46.3551 195.261 44.9782 195.175 43.6269C195.027 41.3114 194.959 41.212 193.52 41.212C192.081 41.212 192.013 41.3114 191.865 43.6269C191.711 46.0422 192.325 47.4647 193.52 47.4647C193.865 47.4647 194.414 47.1445 194.738 46.7532ZM183.964 41.0159C186.83 38.0245 184.202 35.3965 181.211 38.2625C179.666 39.743 179.395 40.893 180.364 41.8623C181.334 42.8316 182.484 42.5612 183.964 41.0159ZM206.676 41.8623C207.645 40.893 207.374 39.743 205.829 38.2625C202.838 35.3965 200.21 38.0245 203.076 41.0159C204.556 42.5612 205.706 42.8316 206.676 41.8623ZM199.076 36.1748C201.939 33.8576 202.866 31.7671 202.656 28.1001C202.51 25.5494 202.211 24.6622 200.988 23.1506C198.671 20.2875 196.58 19.3606 192.913 19.5703C190.363 19.7161 189.475 20.0151 187.964 21.2386C185.101 23.5558 184.174 25.6464 184.383 29.3134C184.529 31.864 184.828 32.7512 186.052 34.2628C188.369 37.1259 190.46 38.0528 194.127 37.8432C196.677 37.6973 197.565 37.3983 199.076 36.1748ZM181.015 28.7067C181.015 27.2249 180.979 27.2061 178.318 27.2061C176.345 27.2061 175.48 27.4298 175.096 28.0395C174.143 29.5498 175.564 30.5251 178.469 30.3557C180.931 30.2122 181.015 30.1581 181.015 28.7067ZM211.813 29.6652C213.022 28.2084 211.765 27.2061 208.729 27.2061C205.953 27.2061 205.245 27.8548 205.967 29.7364C206.365 30.7726 210.94 30.7169 211.813 29.6652ZM185.183 19.0237C185.292 18.2571 184.865 17.3377 183.964 16.3976C182.484 14.8522 181.334 14.5818 180.364 15.5511C179.424 16.4911 179.65 17.5278 181.129 19.0724C182.831 20.8481 184.929 20.8231 185.183 19.0237ZM205.932 19.0502C207.391 17.5265 207.612 16.4879 206.676 15.5511C205.713 14.5888 204.559 14.8492 203.118 16.3538C201.84 17.687 201.382 19.3948 202.107 20.1197C202.86 20.873 204.67 20.3668 205.932 19.0502ZM195.021 13.5048C195.021 11.532 194.797 10.667 194.187 10.2824C192.788 9.39988 191.769 10.7254 191.769 13.4281C191.769 16.1686 192.029 16.5504 193.751 16.3494C194.935 16.2114 195.021 16.0194 195.021 13.5048ZM5.47605 226.755C3.85909 225.138 5.07898 221.538 7.24415 221.538C8.69173 221.538 10.1923 223.066 10.1923 224.54C10.1923 226.989 7.14264 228.421 5.47605 226.755ZM374.37 216.656C372.734 215.331 372.461 212.151 373.835 210.409C374.714 209.294 375.322 209.033 377.047 209.033C379.506 209.033 381.146 210.393 381.635 212.835C381.878 214.049 381.647 214.645 380.441 215.937C378.703 217.798 376.153 218.1 374.37 216.656ZM60.8702 210.946C58.6742 210.361 57.2122 208.355 57.2122 205.926C57.2122 200.099 66.079 199.075 67.5005 204.738C68.4864 208.667 64.9052 212.019 60.8702 210.946ZM320.717 210.059C319.064 208.756 318.46 206.114 319.335 204.004C320.114 202.121 321.186 201.53 323.815 201.53C329.763 201.53 330.001 210.072 324.074 210.862C322.517 211.07 321.774 210.892 320.717 210.059ZM83.5984 188.484C82.4356 187.807 82.4414 184.933 83.6102 183.877C84.6622 182.925 85.9085 183.027 87.2493 184.175C88.5046 185.25 88.4962 186.756 87.2256 188.024C86.1293 189.121 84.9479 189.27 83.5984 188.484ZM301.376 181.679C297.76 179.871 296.568 174.575 299.101 171.565C301.608 168.585 306.651 168.427 309.298 171.245C311.062 173.122 311.302 177.004 309.791 179.208C308.353 181.308 307.55 181.816 305.048 182.211C303.667 182.429 302.554 182.267 301.376 181.679ZM82.3749 167.538C80.5488 166.424 79.3844 163.425 79.9317 161.244C80.1195 160.496 80.9194 159.238 81.7095 158.448C82.8603 157.297 83.5881 157.011 85.368 157.011C90.9465 157.011 93.3982 163.418 89.2442 167.14C87.3758 168.815 84.721 168.968 82.3749 167.538ZM303.453 151.226C302.531 150.5 301.595 149.139 301.27 148.052C299.857 143.336 305.181 139.356 309.746 141.717C313.348 143.579 313.084 149.455 309.299 151.691C307.327 152.856 305.318 152.696 303.453 151.226ZM73.8975 148.011C71.5486 147.064 70.511 143.767 71.7999 141.347C72.7123 139.633 73.8024 139.037 76.0505 139.019C77.7709 139.006 78.3566 139.27 79.4269 140.542C81.5975 143.122 80.6987 146.894 77.6613 147.953C75.8209 148.595 75.3602 148.602 73.8975 148.011ZM6.63555 137.13C5.4953 136.17 5.18992 135.5 5.18992 133.957C5.18992 131.459 6.55852 130 8.90064 130C11.3002 130 12.1216 130.412 12.9618 132.036C13.9709 133.988 13.8876 134.694 12.4466 136.407C10.7342 138.442 8.52192 138.717 6.63555 137.13ZM373.003 130.997C370.75 130.089 370.07 126.272 371.845 124.497C373.375 122.968 376.489 123.133 377.811 124.815C379.662 127.167 378.917 129.928 376.149 130.98C374.565 131.582 374.459 131.583 373.003 130.997ZM8.27843 115.336C7.07231 114.052 6.89435 112.489 7.7662 110.834C8.56331 109.319 9.161 109.007 11.2816 108.998C13.3486 108.989 15.1945 110.756 15.1945 112.742C15.1945 113.356 14.7277 114.451 14.1578 115.176C12.773 116.936 9.8564 117.016 8.27843 115.336ZM375.339 104.562C370.043 101.744 370.125 92.9331 375.473 90.1675C378.88 88.4057 383.717 89.5173 386.006 92.588C387.424 94.4896 387.766 99.1406 386.642 101.228C384.622 104.979 379.154 106.592 375.339 104.562ZM260.569 95.6203C256.331 94.5439 253.915 88.4673 256.166 84.5455C257.932 81.469 262.62 80.0847 265.766 81.7112C271.394 84.6219 271.424 92.0332 265.819 94.8597C263.633 95.962 262.539 96.1206 260.569 95.6203ZM2.82071 91.517C1.07589 90.0612 0.688049 88.3577 0.688049 82.1503C0.688049 66.1098 7.49109 50.7838 19.7162 39.2833C31.3403 28.3482 45.0225 22.8449 60.7135 22.7933C70.2663 22.762 75.9641 24.0462 85.2239 28.3182C91.9005 31.3984 94.0178 33.8441 92.72 36.9772C91.9749 38.7761 89.9851 40.4617 88.6065 40.4617C88.0654 40.4617 85.6758 39.5383 83.2968 38.4097C73.5259 33.7745 66.4891 32.1392 58.4292 32.6307C41.1011 33.6874 23.9298 45.1135 15.9971 60.8659C12.0973 68.6099 10.6923 74.4189 10.6923 82.7984C10.6923 88.6922 10.0902 90.4927 7.70742 91.7249C5.77018 92.7267 4.18995 92.6595 2.82071 91.517ZM24.8495 91.0005C24.2448 90.7442 23.372 89.8033 22.9099 88.9096C21.7735 86.712 22.1724 76.6971 23.5845 71.975C26.8868 60.932 35.1328 51.4802 45.8438 46.4609C49.9105 44.5551 56.7006 42.4625 58.8175 42.4625C61.6245 42.4625 63.7114 45.0067 63.0231 47.5897C62.4813 49.6237 61.9292 49.9932 56.8669 51.7116C50.3098 53.9375 46.3399 56.3213 41.9498 60.669C35.1475 67.4054 32.2725 73.761 31.8221 83.0575C31.6071 87.4921 31.3868 88.6082 30.5071 89.7012C29.3386 91.1536 26.6613 91.7685 24.8495 91.0005ZM119.388 86.0309C117.042 84.5575 116.081 82.3667 116.351 79.1119C116.534 76.9032 116.867 76.1168 118.166 74.8168C119.631 73.3521 120.019 73.2256 123.038 73.2256C126.176 73.2256 126.391 73.3048 128 75.061C130.305 77.5756 130.724 80.05 129.295 82.6999C127.846 85.3872 126.087 86.6 123.289 86.8399C121.596 86.985 120.566 86.7715 119.388 86.0309ZM155.932 86.0043C154.284 85.3099 153.251 83.464 153.269 81.2429C153.286 79.0586 153.894 77.9655 155.596 77.0591C158.759 75.3742 162.757 77.6762 162.757 81.1828C162.757 84.5046 158.878 87.245 155.932 86.0043ZM222.61 78.0635C221.496 76.8335 221.566 75.1925 222.782 73.9761C224.084 72.6741 225.495 72.7075 226.764 74.0704C228.091 75.4946 228.053 76.5504 226.627 77.8906C225.213 79.2185 223.713 79.2831 222.61 78.0635ZM251.612 67.4368C249.209 65.5465 250.441 61.9708 253.496 61.9708C256.703 61.9708 257.974 65.4742 255.479 67.4368C254.754 68.007 253.884 68.4735 253.545 68.4735C253.207 68.4735 252.337 68.007 251.612 67.4368ZM227.441 61.7389C224.624 60.5137 223.447 56.5349 225.007 53.5167C227.302 49.08 233.62 49.5503 235.607 54.3057C236.791 57.1403 235.34 60.5817 232.45 61.7889C230.43 62.6328 229.475 62.6235 227.441 61.7389ZM146.861 57.1904C145.525 56.2546 145.34 53.448 146.536 52.2524C147.479 51.3094 149.753 51.2248 150.856 52.0916C152.441 53.3376 152.43 54.8671 150.826 56.4721C149.127 58.1712 148.439 58.2956 146.861 57.1904Z" fill="black"/>
</g>
<defs>
<clipPath id="clip0_2_2">
<rect width="388" height="480" fill="white"/>
</clipPath>
</defs>
</svg>
