<svg width="352" height="43" viewBox="0 0 352 43" fill="none" xmlns="http://www.w3.org/2000/svg">
    <g clip-path="url(#clip0_2_13)">
        <path d="M15.702 41.4718C9.75371 39.732 4.71905 35.5926 2.11302 30.299C-0.948983 24.0793 -0.313696 15.1817 3.6003 9.46802C6.08078 5.84711 7.88313 4.32714 12.2005 2.21503C15.8289 0.440082 16.1329 0.379761 21.4544 0.379761C27.5234 0.379761 30.4425 1.11845 33.9597 3.54428C36.8623 5.54621 36.7585 6.43151 33.2605 9.50864C31.6186 10.953 29.9308 12.1348 29.5101 12.1348C29.0894 12.1348 27.4791 11.6609 25.9317 11.0821C20.2527 8.9573 14.4859 11.1595 11.9028 16.4393C10.7735 18.7473 10.6083 19.6055 10.8471 21.9199C11.467 27.9261 16.2079 32.1982 22.1369 32.0934C27.1694 32.0041 27.457 31.8033 27.457 28.369V25.3903L24.7058 25.245C21.4626 25.0736 20.7012 24.3443 20.711 21.4181C20.7228 16.9362 20.3399 17.1368 28.9547 17.1368C34.9898 17.1368 36.7136 17.2875 37.1864 17.8574C37.8632 18.6729 37.7578 39.2693 37.073 39.952C35.6241 41.3971 19.3933 42.5513 15.702 41.4718ZM107.241 41.2059C103.286 39.9296 101.814 39.0572 98.9064 36.2647C89.6467 27.3718 91.0346 10.8775 101.641 3.76813C105.767 1.00217 107.996 0.379774 113.77 0.380188C118.288 0.380483 118.757 0.48299 122.366 2.26715C126.837 4.47681 129.55 7.27274 131.802 11.9919C133.944 16.4797 134.341 22.5212 132.823 27.5205C129.544 38.3144 117.781 44.6072 107.241 41.2059ZM116.809 30.9364C120.307 29.4707 122.247 25.9934 122.247 21.1872C122.247 17.7114 121.771 16.2402 119.88 13.8704C117.4 10.7616 113.253 9.85683 109.434 11.5911C104.358 13.8962 102.384 20.9917 105.247 26.6409C107.446 30.9805 112.352 32.8033 116.809 30.9364ZM280.623 41.5911C271.268 39.3949 264.687 29.9823 265.448 19.8869C266.361 7.77367 275.347 -0.380288 287.067 0.268707C295.066 0.711808 300.669 4.3955 304.195 11.5296C306.04 15.2639 306.075 15.4411 306.075 21.1126C306.075 26.5483 305.983 27.0839 304.519 30.1424C301.616 36.2092 297.4 39.7269 291.051 41.3807C287.833 42.219 283.657 42.3033 280.623 41.5911ZM290.337 30.5175C293.228 29.0601 295.323 25.2328 295.316 21.424C295.31 18.3869 293.553 14.2851 291.6 12.7491C287.116 9.22188 280.912 10.4804 277.961 15.5158C276.879 17.3616 276.611 18.4592 276.59 21.1383C276.566 23.9887 276.779 24.8214 278.069 26.9297C279.834 29.8152 282.936 31.643 286.066 31.643C287.188 31.643 289.11 31.1367 290.337 30.5175ZM51.7173 41.3316C49.7668 40.5529 49.7162 40.0282 49.7241 20.6679C49.7281 10.3348 49.919 1.58513 50.1483 1.22415C50.472 0.713699 52.9951 0.575335 61.5204 0.601685L72.4764 0.637115L75.5848 2.15756C80.6134 4.61707 83.351 9.03873 83.3076 14.6311C83.2722 19.3481 81.0588 23.4678 77.5106 25.4263C76.5415 25.961 77.3759 27.7715 84.5826 40.7736C84.6972 40.9797 82.3393 41.1487 79.3432 41.1487H73.8959L72.1857 38.1657C71.2451 36.525 69.5697 33.655 68.4626 31.788L66.4497 28.3933L63.2753 28.417L60.1009 28.4406L60.1677 34.1678C60.2032 37.3177 60.0531 40.1704 59.8316 40.5071C59.3961 41.1686 52.9504 41.8238 51.7173 41.3316ZM71.4664 17.9393C73.0162 16.9238 73.5211 15.0543 72.749 13.1904C71.9058 11.1548 70.3172 10.6342 64.9493 10.6342H60.2208V14.5524C60.2208 16.7076 60.3479 18.5978 60.5033 18.7529C60.6586 18.9083 62.9088 18.9721 65.5041 18.8947C68.8305 18.7954 70.5895 18.5136 71.4664 17.9393ZM156.465 41.1605C155.889 40.9277 155.064 39.9853 154.632 39.0663C152.874 35.3298 140.755 3.06472 140.755 2.12186C140.755 0.783337 142.558 0.12973 146.249 0.12973C150.041 0.12973 150.619 0.387917 151.708 2.56738C152.404 3.96091 159.048 22.643 160.047 26.0157C160.615 27.9345 161.066 26.7608 166.518 9.15619C167.75 5.1795 169.074 1.60918 169.461 1.22226C169.848 0.835285 171.144 0.409179 172.342 0.275421C176.476 -0.186585 176.853 0.440865 182.75 17.6334C185.388 25.3229 186.774 28.2261 186.774 26.0591C186.774 25.006 194.395 2.33072 195.05 1.43512C195.422 0.92644 196.751 0.512849 198.657 0.31369C202.584 -0.0969168 205.138 0.388168 205.529 1.61887C205.868 2.68686 192.645 38.5802 191.302 40.2395C190.612 41.0916 189.833 41.2531 186.091 41.3193C182.157 41.389 181.601 41.2838 180.826 40.333C180.35 39.7475 178.529 35.471 176.78 30.829C175.031 26.1871 173.443 22.2061 173.253 21.9825C173.062 21.7586 171.617 25.2773 170.042 29.8014C166.496 39.9846 165.971 40.8998 163.442 41.3177C160.845 41.7467 157.742 41.6768 156.465 41.1605ZM223.54 41.2349L222.039 40.8875L221.908 21.1649C221.836 10.3174 221.955 1.26496 222.171 1.04831C222.388 0.831485 227.624 0.612923 233.807 0.561523C244.442 0.473494 245.187 0.526064 247.609 1.58301C255.184 4.8795 257.202 13.9463 251.471 18.932L249.695 20.477L251.469 21.5235C254.258 23.1694 255.981 26.1961 256.193 29.8256C256.354 32.5816 256.205 33.1718 254.713 35.6305C253.376 37.8333 252.473 38.6629 250.086 39.8822L247.121 41.3971L236.081 41.4893C230.008 41.5424 224.365 41.4258 223.54 41.2349ZM244.826 30.8684C245.563 30.2012 245.806 29.4522 245.699 28.1789C245.484 25.6354 244.176 25.1567 237.421 25.1479L231.794 25.142V28.3659V31.5899L234.17 31.8062C239.097 32.254 243.748 31.8459 244.826 30.8684ZM242.981 15.6002C244.528 14.3831 244.687 12.6409 243.359 11.4397C242.302 10.483 241.728 10.4138 235.92 10.5427L231.793 10.6343V13.3021C231.793 14.7694 231.943 16.12 232.127 16.3033C232.31 16.4865 234.531 16.6365 237.061 16.6365C240.959 16.6365 241.864 16.4786 242.981 15.6002ZM313.447 41.2225L312.316 40.897L313.38 38.8961C313.965 37.7956 316.739 33.6314 319.545 29.6422C322.351 25.653 324.813 22.1094 325.017 21.7675C325.246 21.3841 322.981 17.6549 319.108 12.0359C315.538 6.85778 312.828 2.43064 312.828 1.77805C312.828 0.654637 312.94 0.629883 318.008 0.629883H323.187L325.381 3.75626C326.588 5.47572 328.44 8.17686 329.497 9.75879C330.554 11.3407 331.58 12.635 331.778 12.635C331.976 12.635 333.458 10.5823 335.071 8.07324C340.093 0.262434 339.574 0.629883 345.583 0.629883C349.5 0.629883 350.8 0.795352 351.001 1.31927C351.248 1.96148 346.824 8.57359 340.528 16.9746C339.049 18.9487 337.838 20.8206 337.838 21.1345C337.838 21.4482 339.37 23.7724 341.242 26.2989C346.376 33.2288 350.844 39.8647 350.844 40.5601C350.844 41.0245 349.435 41.1444 345.218 41.0387L339.591 40.8974L335.757 35.4096C333.648 32.3912 331.734 29.8634 331.504 29.7921C331.274 29.7206 329.399 32.226 327.338 35.3592C323.953 40.505 323.421 41.0839 321.836 41.3463C319.605 41.7155 314.921 41.6461 313.447 41.2225Z"
              fill="black"/>
    </g>
    <defs>
        <clipPath id="clip0_2_13">
            <rect width="352" height="43" fill="white"/>
        </clipPath>
    </defs>
</svg>
